<?xml version="1.0" encoding="UTF-8"?>
<svg xmlns="http://www.w3.org/2000/svg" id="Layer_1" data-name="Layer 1" viewBox="0 0 24 24">
  <path d="m9.5,9c2.236,0,4.5-.687,4.5-2,0-2.627-9-2.627-9,0,0,1.313,2.264,2,4.5,2Zm0-3c2.273,0,3.5.71,3.5,1s-1.227,1-3.5,1-3.5-.71-3.5-1,1.227-1,3.5-1Zm11,6h-1.5v-5c0-3.309-4.262-6-9.5-6C4.672,1,.683,3.288.086,6.236c-.05.078-.086.165-.086.264v11.286c0,2.924,3.901,5.214,8.881,5.214h11.619c1.93,0,3.5-1.57,3.5-3.5v-4c0-1.93-1.57-3.5-3.5-3.5Zm-2.5,0h-3.26c1.387-.582,2.513-1.389,3.26-2.336v2.336ZM9.5,2c4.687,0,8.5,2.243,8.5,5s-3.813,5-8.5,5S1,9.757,1,7,4.813,2,9.5,2Zm13.5,17.5c0,1.379-1.121,2.5-2.5,2.5h-.5v-4.5c0-.276-.224-.5-.5-.5s-.5.224-.5.5v4.5h-3v-4.5c0-.276-.224-.5-.5-.5s-.5.224-.5.5v4.5h-3v-4.5c0-.276-.224-.5-.5-.5s-.5.224-.5.5v4.5h-2.119c-.298,0-.591-.011-.881-.03v-4.47c0-.276-.224-.5-.5-.5s-.5.224-.5.5v4.368c-3.398-.465-6-2.143-6-4.082v-8.123c1.557,1.974,4.777,3.336,8.5,3.336h11c1.379,0,2.5,1.121,2.5,2.5v4Z"/>
</svg>
